<svg width="36" height="36" viewBox="0 0 35.51 36" fill="none" xmlns="http://www.w3.org/2000/svg">
  <path d="M0 0.461384V35.9654H13.6739V33.4098C13.6533 29.3317 10.3307 26.0205 6.24799 26.0205V22.7829C9.13433 22.7829 11.7497 23.9402 13.6716 25.807V9.54521C13.7451 6.01592 16.5442 3.13647 20.0804 3.13647C23.6166 3.13647 26.4891 6.01133 26.4891 9.54521C26.4891 13.0791 23.6143 15.9539 20.0804 15.9539C20.0689 15.9539 20.0574 15.9539 20.0482 15.9539V12.7163C20.0482 12.7163 20.0712 12.7163 20.0804 12.7163C21.8301 12.7163 23.2537 11.2926 23.2537 9.54291C23.2537 7.79319 21.8301 6.36954 20.0804 6.36954C19.217 6.36954 18.434 6.71626 17.8622 7.27884H17.8645C17.2721 7.86667 16.9667 8.65427 16.9208 9.67608V9.70135C16.9208 9.70135 16.9208 9.72201 16.9208 9.73349C16.9208 9.74038 16.9208 9.74726 16.9208 9.75415L16.9162 15.1112C16.9162 15.1112 16.9139 15.1112 16.9116 15.1089V22.7645C19.7658 19.0538 24.2457 16.6566 29.2767 16.6566V19.8942C22.4616 19.8942 16.9162 25.4396 16.9162 32.2547V35.9034H16.9139V35.9608H35.5063V0.456787H0.00229846L0 0.461384ZM8.52354 16.6084C7.25603 16.6084 6.22733 15.5797 6.22733 14.3121C6.22733 13.0446 7.25603 12.0159 8.52354 12.0159C9.79105 12.0159 10.8198 13.0446 10.8198 14.3121C10.8198 15.5797 9.79105 16.6084 8.52354 16.6084Z" fill="#00BF7D"/>
</svg>
