<svg width="160" height="41" viewBox="0 0 160 41" fill="none" xmlns="http://www.w3.org/2000/svg">
<g id="Group 38">
<path id="Vector" d="M60.9553 16.6222L56.6867 10.7668C56.728 10.7508 56.7739 10.737 56.8153 10.7209C57.7498 10.3489 58.4754 9.77947 58.9944 9.01254C59.5133 8.2456 59.7728 7.27889 59.7728 6.11012V5.7588C59.7728 4.57625 59.5179 3.60036 59.0058 2.83573C58.4938 2.06879 57.7682 1.49244 56.8267 1.10438C55.8853 0.718615 54.7716 0.523438 53.4858 0.523438H47.55V16.6222H50.6614V11.2766H53.4881C53.5064 11.2766 53.5225 11.2766 53.5386 11.2766L57.2998 16.6222H60.9576H60.9553ZM50.6614 3.17327H53.8164C54.3859 3.17327 54.8796 3.29267 55.2952 3.53377C55.7108 3.77487 56.0323 4.10323 56.2596 4.51885C56.4846 4.93446 56.5994 5.42126 56.5994 5.97464C56.5994 6.52803 56.4869 7.01483 56.2596 7.43044C56.0323 7.84606 55.7131 8.17212 55.2952 8.40404C54.8796 8.63826 54.3859 8.75536 53.8164 8.75536H50.6614V3.17097V3.17327Z" fill="#1F4D56"/>
<path id="Vector_2" d="M73.8991 10.3145C73.8991 9.26279 73.6809 8.28231 73.2424 7.36841C72.8038 6.45682 72.1517 5.71744 71.2814 5.15716C70.4134 4.59459 69.3365 4.31445 68.0506 4.31445C67.0724 4.31445 66.2068 4.48667 65.4559 4.8288C64.7027 5.17323 64.0805 5.63248 63.5822 6.20883C63.0862 6.78518 62.7096 7.44189 62.4548 8.17898C62.1999 8.91606 62.0713 9.6784 62.0713 10.4683V10.8839C62.0713 11.644 62.1999 12.3879 62.4548 13.1181C62.7096 13.8483 63.0908 14.5096 63.5937 15.0998C64.0966 15.6922 64.7326 16.1629 65.4995 16.5119C66.2665 16.8632 67.1597 17.0378 68.1838 17.0378C69.2079 17.0378 70.0345 16.8701 70.8015 16.5349C71.5684 16.1997 72.1999 15.7243 72.6959 15.1112C73.1918 14.4982 73.5271 13.7817 73.7039 12.9643H70.8773C70.7464 13.4029 70.4456 13.7702 69.9794 14.0711C69.511 14.3696 68.914 14.5211 68.1838 14.5211C67.4536 14.5211 66.8267 14.3558 66.3445 14.0274C65.8623 13.6991 65.5041 13.2467 65.2722 12.6704C65.1207 12.2938 65.0219 11.8805 64.9691 11.4327H73.9014V10.3168L73.8991 10.3145ZM66.3445 7.30412C66.8107 6.98954 67.3801 6.8334 68.0529 6.8334C68.7257 6.8334 69.2791 6.98035 69.7177 7.27197C70.1563 7.56359 70.4869 7.9792 70.7142 8.52111C70.8428 8.8288 70.9301 9.17324 70.9852 9.54982H65.015C65.0747 9.21457 65.1643 8.90917 65.2814 8.62903C65.5225 8.05957 65.8761 7.6187 66.3445 7.30412Z" fill="#1F4D56"/>
<path id="Vector_3" d="M85.6392 4.73024V7.13208C85.5956 7.02875 85.5474 6.93001 85.4969 6.83127C85.0813 6.0276 84.5118 5.41451 83.7885 4.99201C83.0652 4.5695 82.2225 4.35596 81.2581 4.35596C80.4269 4.35596 79.6668 4.50292 78.9802 4.79453C78.2937 5.08615 77.7012 5.50406 77.2053 6.04367C76.7093 6.58328 76.3258 7.21474 76.0549 7.93805C75.7839 8.66136 75.6484 9.43747 75.6484 10.271V10.7532C75.6484 11.5844 75.777 12.3628 76.0319 13.0862C76.2868 13.8095 76.6519 14.4432 77.1272 14.992C77.6025 15.5385 78.1743 15.9633 78.8471 16.2618C79.5176 16.5603 80.2638 16.7119 81.0813 16.7119C82.0021 16.7119 82.8126 16.5121 83.513 16.1103C84.2133 15.7084 84.769 15.1275 85.1777 14.3697V15.3984C85.1777 16.1723 85.0377 16.8106 84.7621 17.3158C84.4843 17.8186 84.0434 18.1883 83.4372 18.4226C82.831 18.6568 82.0319 18.7739 81.0376 18.7739C80.5256 18.7739 79.9676 18.7486 79.3614 18.6981C78.7552 18.6476 78.1972 18.5925 77.6852 18.5328V21.0953C78.1812 21.1688 78.7254 21.2262 79.3178 21.2699C79.9102 21.3135 80.4889 21.3364 81.0583 21.3364C82.6794 21.3364 84.0044 21.1275 85.0331 20.7119C86.0618 20.2963 86.8264 19.6395 87.3224 18.7394C87.8184 17.8416 88.0663 16.6705 88.0663 15.2239V4.73253H85.6347L85.6392 4.73024ZM85.1364 10.7739C85.1364 11.4742 84.994 12.0735 84.7093 12.5695C84.4246 13.0655 84.0411 13.4467 83.5589 13.7084C83.0767 13.9725 82.544 14.1034 81.9607 14.1034C81.3178 14.1034 80.7529 13.9564 80.2638 13.6648C79.7747 13.3732 79.3913 12.9576 79.1134 12.4157C78.8356 11.8761 78.6978 11.24 78.6978 10.5098C78.6978 9.77961 78.8356 9.14126 79.1134 8.59247C79.3913 8.04597 79.7747 7.62117 80.2638 7.32266C80.7529 7.02415 81.3178 6.8726 81.9607 6.8726C82.5164 6.8726 83.033 6.99201 83.5153 7.23311C83.9975 7.47421 84.3878 7.82783 84.6863 8.29626C84.9848 8.76469 85.1364 9.34103 85.1364 10.0276V10.7716V10.7739Z" fill="#1F4D56"/>
<path id="Vector_4" d="M93.0887 3.30655C93.688 3.30655 94.1243 3.1527 94.4021 2.8473C94.68 2.53961 94.8177 2.14007 94.8177 1.64179C94.8177 1.14351 94.68 0.764639 94.4021 0.459243C94.1243 0.15155 93.6857 0 93.0887 0C92.4917 0 92.0485 0.153846 91.7638 0.459243C91.479 0.766935 91.3367 1.15959 91.3367 1.64179C91.3367 2.124 91.479 2.53961 91.7638 2.8473C92.0485 3.155 92.4894 3.30655 93.0887 3.30655Z" fill="#1F4D56"/>
<path id="Vector_5" d="M91.9702 4.73022H90.3054V7.00806H91.9702V16.6223H95.015V7.00806V4.73022H91.9702Z" fill="#1F4D56"/>
<path id="Vector_6" d="M104.237 17.0402C103.185 17.0402 102.257 16.8726 101.456 16.5373C100.652 16.2021 99.9725 15.7497 99.4191 15.1803C98.8634 14.6108 98.4455 13.961 98.1607 13.2308C97.876 12.5006 97.7336 11.7337 97.7336 10.93V10.4707C97.7336 9.6533 97.8806 8.87488 98.1722 8.1378C98.4638 7.40071 98.8909 6.74399 99.4535 6.16764C100.016 5.59129 100.703 5.13894 101.513 4.81058C102.324 4.48222 103.233 4.31689 104.241 4.31689C105.249 4.31689 106.154 4.48222 106.958 4.81058C107.761 5.13894 108.443 5.59129 109.006 6.16764C109.568 6.74399 109.995 7.40071 110.287 8.1378C110.579 8.87488 110.726 9.6533 110.726 10.4707V10.93C110.726 11.7337 110.583 12.5006 110.299 13.2308C110.014 13.961 109.594 14.6108 109.04 15.1803C108.485 15.7497 107.807 16.2021 107.003 16.5373C106.2 16.8726 105.281 17.0402 104.243 17.0402H104.237ZM104.237 14.434C104.967 14.434 105.587 14.2687 106.099 13.9403C106.611 13.612 107.001 13.1665 107.27 12.6039C107.541 12.0414 107.676 11.403 107.676 10.6866C107.676 9.97017 107.536 9.32953 107.261 8.76007C106.983 8.19061 106.588 7.74055 106.078 7.41219C105.566 7.08383 104.953 6.91851 104.239 6.91851C103.525 6.91851 102.907 7.08383 102.388 7.41219C101.869 7.74055 101.472 8.19061 101.194 8.76007C100.916 9.32953 100.778 9.97246 100.778 10.6866C100.778 11.4007 100.914 12.0414 101.185 12.6039C101.456 13.1665 101.846 13.612 102.356 13.9403C102.868 14.2687 103.495 14.434 104.239 14.434H104.237Z" fill="#1F4D56"/>
<path id="Vector_7" d="M123.226 5.7267C122.496 4.81511 121.424 4.35815 120.007 4.35815H119.876C118.928 4.35815 118.135 4.56252 117.499 4.97125C116.863 5.37997 116.386 5.99076 116.064 6.79903C115.959 7.06539 115.871 7.35472 115.803 7.66471V4.73015H113.394V16.6245H116.439V9.63715C116.439 8.87711 116.668 8.26402 117.127 7.79788C117.587 7.33175 118.191 7.09754 118.935 7.09754C119.679 7.09754 120.22 7.32486 120.643 7.77722C121.065 8.22957 121.279 8.822 121.279 9.55219V16.6268H124.324V9.81396C124.324 8.00454 123.959 6.64289 123.228 5.72899L123.226 5.7267Z" fill="#1F4D56"/>
<path id="Vector_8" d="M136.576 6.55782C136.161 5.86436 135.548 5.3569 134.737 5.03543C133.926 4.71396 132.909 4.55322 131.681 4.55322C131.286 4.55322 130.863 4.55782 130.411 4.56471C129.959 4.5716 129.525 4.58996 129.107 4.61981C128.691 4.64967 128.314 4.67722 127.979 4.70707V7.29261C128.388 7.26276 128.852 7.2375 129.371 7.21683C129.89 7.19387 130.404 7.1778 130.916 7.16172C131.428 7.14795 131.864 7.13876 132.23 7.13876C132.916 7.13876 133.426 7.31098 133.763 7.65311C134.099 7.99754 134.266 8.50501 134.266 9.1755V9.28572H131.858C130.806 9.28572 129.887 9.42349 129.097 9.70134C128.31 9.97918 127.704 10.3948 127.279 10.9505C126.854 11.5062 126.643 12.2203 126.643 13.0974C126.643 13.9011 126.822 14.5877 127.18 15.1571C127.538 15.7266 128.039 16.1652 128.68 16.4706C129.323 16.7783 130.073 16.9298 130.937 16.9298C131.8 16.9298 132.473 16.7806 133.052 16.4798C133.628 16.1813 134.08 15.745 134.409 15.1755C134.556 14.9206 134.675 14.6336 134.769 14.3236V16.6198H137.201V9.26046C137.201 8.15139 136.992 7.24898 136.576 6.55552V6.55782ZM132.985 14.5303C132.627 14.6841 132.236 14.7599 131.814 14.7599C131.114 14.7599 130.576 14.5923 130.204 14.257C129.832 13.9218 129.646 13.4832 129.646 12.9436C129.646 12.404 129.832 11.9654 130.204 11.6302C130.576 11.2949 131.114 11.1273 131.814 11.1273H134.266V12.2226C134.236 12.8655 134.106 13.373 133.871 13.745C133.637 14.117 133.341 14.381 132.985 14.5326V14.5303Z" fill="#1F4D56"/>
<path id="Vector_9" d="M140.617 0.633789H139.127V2.91163H140.617V16.6223H143.662V2.91163V0.633789H140.617Z" fill="#1F4D56"/>
<path id="Vector_10" d="M57.6969 22.2872C57.2446 21.5272 56.5764 20.9394 55.6923 20.5237C54.8083 20.1081 53.7107 19.8992 52.395 19.8992H47.4673V35.9773H49.6579V30.4365H52.395C53.7084 30.4365 54.8083 30.2275 55.6923 29.8119C56.5764 29.3963 57.2446 28.8039 57.6969 28.0369C58.1493 27.27 58.3766 26.3768 58.3766 25.3527V25.0014C58.3766 23.9497 58.1493 23.045 57.6969 22.2849V22.2872ZM55.7704 26.8659C55.5224 27.3779 55.1504 27.7821 54.6544 28.0806C54.1584 28.3791 53.5293 28.5306 52.7715 28.5306H49.6602V21.805H52.7715C53.5316 21.805 54.1584 21.952 54.6544 22.2436C55.1504 22.5352 55.5224 22.9371 55.7704 23.4491C56.0184 23.9612 56.1424 24.5375 56.1424 25.1805C56.1424 25.8234 56.0184 26.3561 55.7704 26.8659Z" fill="#1F4D56"/>
<path id="Vector_11" d="M67.38 24.1492C65.876 24.1492 64.7486 24.5464 63.9954 25.3432C63.4489 25.9218 63.1045 26.7416 62.9552 27.8002V24.2824H61.2468V35.9793H63.3938V29.6486C63.3938 28.4959 63.7084 27.6073 64.3352 26.9873C64.9621 26.3673 65.853 26.0573 67.008 26.0573H67.775V24.1515H67.38V24.1492Z" fill="#1F4D56"/>
<path id="Vector_12" d="M75.5038 36.3721C74.482 36.3721 73.5842 36.1975 72.8104 35.8462C72.0365 35.4949 71.3821 35.0334 70.8494 34.4547C70.3167 33.8784 69.9148 33.2308 69.6439 32.5167C69.3729 31.8003 69.2397 31.0701 69.2397 30.3261V29.9312C69.2397 29.1872 69.3775 28.4524 69.6554 27.7291C69.9332 27.0058 70.3419 26.356 70.8815 25.7796C71.4212 25.2033 72.0779 24.744 72.8517 24.3996C73.6255 24.0575 74.5096 23.8853 75.5015 23.8853C76.4935 23.8853 77.3775 24.0575 78.1514 24.3996C78.9252 24.7417 79.5819 25.2033 80.1215 25.7796C80.6611 26.356 81.0698 27.0058 81.3477 27.7291C81.6255 28.4524 81.7633 29.1849 81.7633 29.9312V30.3261C81.7633 31.0701 81.6278 31.8003 81.3592 32.5167C81.0882 33.2331 80.6864 33.8784 80.1537 34.4547C79.6209 35.0311 78.9665 35.4949 78.1927 35.8462C77.4189 36.1975 76.521 36.3721 75.4992 36.3721H75.5038ZM75.5038 34.4662C76.381 34.4662 77.1249 34.2733 77.738 33.8853C78.3511 33.4995 78.8219 32.9805 79.1502 32.3307C79.4786 31.6809 79.6439 30.9461 79.6439 30.1287C79.6439 29.3112 79.4763 28.5557 79.141 27.9059C78.8058 27.2561 78.3305 26.7417 77.7174 26.3629C77.1043 25.984 76.3672 25.7934 75.5061 25.7934C74.645 25.7934 73.9263 25.984 73.304 26.3629C72.6841 26.7417 72.2042 27.2584 71.8689 27.9059C71.5337 28.5557 71.366 29.2974 71.366 30.1287C71.366 30.9599 71.5314 31.6809 71.8597 32.3307C72.1881 32.9805 72.6588 33.4995 73.2719 33.8853C73.885 34.2733 74.629 34.4662 75.5061 34.4662H75.5038Z" fill="#1F4D56"/>
<path id="Vector_13" d="M89.1666 36.3283C87.6327 36.3283 86.4479 36 85.6075 35.3432C84.7671 34.6865 84.3331 33.7887 84.3032 32.6498H86.2963C86.3262 33.0884 86.5558 33.5086 86.9852 33.9081C87.4169 34.3099 88.1425 34.5097 89.1643 34.5097C90.0989 34.5097 90.8153 34.3283 91.3113 33.9632C91.8072 33.5981 92.0552 33.1458 92.0552 32.6062C92.0552 32.1239 91.8715 31.7497 91.5087 31.4787C91.1436 31.2077 90.5512 31.0287 89.7338 30.9414L88.464 30.8105C87.3549 30.6934 86.4456 30.3604 85.7361 29.8139C85.0288 29.2674 84.6729 28.4959 84.6729 27.504C84.6729 26.76 84.8658 26.1216 85.2538 25.5866C85.6396 25.0539 86.17 24.6452 86.8428 24.3604C87.5133 24.0757 88.2894 23.9333 89.1643 23.9333C90.4938 23.9333 91.5661 24.225 92.3836 24.8105C93.201 25.3937 93.6236 26.264 93.6534 27.4167H91.6603C91.6465 26.9506 91.4307 26.5556 91.015 26.2342C90.5994 25.9127 89.9818 25.752 89.1643 25.752C88.3469 25.752 87.7475 25.9173 87.325 26.2456C86.9002 26.574 86.689 26.9942 86.689 27.5063C86.689 27.9448 86.8382 28.2916 87.139 28.5464C87.4375 28.8013 87.9312 28.9666 88.6178 29.0401L89.8669 29.171C91.1367 29.3019 92.1517 29.6532 92.9117 30.2227C93.6718 30.7921 94.0507 31.5889 94.0507 32.6107C94.0507 33.3409 93.8417 33.9885 93.4261 34.5488C93.0104 35.1113 92.4364 35.5499 91.7062 35.8622C90.976 36.1768 90.1287 36.3329 89.1643 36.3329L89.1666 36.3283Z" fill="#1F4D56"/>
<path id="Vector_14" d="M108.662 27.6096C108.397 26.8794 108.019 26.2365 107.523 25.6831C107.027 25.1274 106.432 24.6911 105.738 24.3697C105.045 24.0482 104.273 23.8875 103.428 23.8875C102.583 23.8875 101.741 24.078 100.997 24.4569C100.253 24.8358 99.6489 25.4236 99.1897 26.2204C99.0312 26.496 98.8981 26.7991 98.7855 27.1274V24.2824H97.0771V40.3605H99.2241V34.2204C99.7017 34.9506 100.294 35.4879 100.999 35.8255C101.759 36.1906 102.554 36.372 103.387 36.372C104.221 36.372 104.983 36.2112 105.676 35.8898C106.37 35.5683 106.969 35.1297 107.472 34.5763C107.975 34.0207 108.365 33.38 108.643 32.6498C108.921 31.9196 109.059 31.1458 109.059 30.3283V29.9334C109.059 29.1159 108.928 28.3421 108.664 27.6119L108.662 27.6096ZM106.427 32.3972C106.106 33.0608 105.658 33.5798 105.079 33.9518C104.503 34.3237 103.819 34.5097 103.031 34.5097C102.345 34.5097 101.706 34.3559 101.114 34.0505C100.521 33.7451 100.044 33.3065 99.6788 32.7371C99.3137 32.1676 99.1323 31.4879 99.1323 30.7003V29.6923C99.1323 28.8611 99.3114 28.1515 99.6696 27.5683C100.028 26.985 100.501 26.535 101.093 26.2204C101.686 25.9058 102.331 25.7497 103.031 25.7497C103.819 25.7497 104.503 25.9357 105.079 26.3077C105.656 26.6797 106.106 27.1917 106.427 27.8415C106.749 28.4914 106.91 29.2537 106.91 30.1309C106.91 31.008 106.749 31.7336 106.427 32.3972Z" fill="#1F4D56"/>
<path id="Vector_15" d="M122.633 29.5822C122.633 28.604 122.429 27.6832 122.02 26.8221C121.612 25.961 120.994 25.2561 120.17 24.7073C119.345 24.1608 118.296 23.8853 117.026 23.8853C116.048 23.8853 115.198 24.0575 114.475 24.3996C113.752 24.7417 113.157 25.2033 112.691 25.7796C112.222 26.356 111.876 27.0035 111.651 27.7176C111.423 28.4341 111.311 29.1711 111.311 29.9289V30.3238C111.311 31.0678 111.423 31.798 111.651 32.5144C111.876 33.2308 112.225 33.8761 112.691 34.4524C113.157 35.0288 113.763 35.4926 114.509 35.8439C115.256 36.1952 116.137 36.3698 117.159 36.3698C118.08 36.3698 118.904 36.2159 119.635 35.9105C120.365 35.6028 120.973 35.1597 121.465 34.5741C121.954 33.9909 122.278 33.2974 122.438 32.4938H120.422C120.305 33.0196 119.963 33.488 119.393 33.8967C118.824 34.3055 118.08 34.5098 117.159 34.5098C116.238 34.5098 115.563 34.3169 115.001 33.9289C114.438 33.5431 114.023 33.0196 113.752 32.3629C113.524 31.8118 113.4 31.1964 113.364 30.5236H122.633V29.5822ZM114.98 26.3078C115.527 25.9358 116.211 25.7498 117.028 25.7498C117.846 25.7498 118.493 25.9174 119.01 26.2526C119.529 26.5879 119.919 27.0563 120.181 27.6533C120.349 28.0345 120.457 28.4685 120.516 28.9461H113.444C113.511 28.5534 113.614 28.1883 113.752 27.8508C114.023 27.1941 114.431 26.6797 114.978 26.3078H114.98Z" fill="#1F4D56"/>
<path id="Vector_16" d="M131.703 24.1492C130.199 24.1492 129.072 24.5464 128.319 25.3432C127.772 25.9218 127.428 26.7416 127.279 27.8002V24.2824H125.57V35.9793H127.717V29.6486C127.717 28.4959 128.032 27.6073 128.659 26.9873C129.286 26.3673 130.177 26.0573 131.332 26.0573H132.098V24.1515H131.703V24.1492Z" fill="#1F4D56"/>
<path id="Vector_17" d="M135.734 22.3974C136.216 22.3974 136.57 22.2734 136.797 22.0254C137.024 21.7774 137.137 21.4628 137.137 21.084C137.137 20.7051 137.024 20.3859 136.797 20.131C136.57 19.8761 136.216 19.7476 135.734 19.7476C135.252 19.7476 134.919 19.8761 134.694 20.131C134.466 20.3859 134.354 20.7051 134.354 21.084C134.354 21.4628 134.466 21.7774 134.694 22.0254C134.919 22.2734 135.265 22.3974 135.734 22.3974Z" fill="#1F4D56"/>
<path id="Vector_18" d="M135.12 24.28H133.345V25.9677H135.12V35.9769H137.265V25.9677V24.28H135.12Z" fill="#1F4D56"/>
<path id="Vector_19" d="M147.692 25.8807V24.2825H143.683V20.7349H141.646V24.2825H139.63V25.8807H141.646V31.9702C141.646 33.0081 141.819 33.8325 142.161 34.4456C142.503 35.0586 142.992 35.4903 143.628 35.7383C144.264 35.9863 145.026 36.1103 145.917 36.1103H147.692V34.2045H145.656C145.029 34.2045 144.542 34.0322 144.2 33.6901C143.858 33.348 143.685 32.8612 143.685 32.2343V25.883H147.695L147.692 25.8807Z" fill="#1F4D56"/>
<path id="Vector_20" d="M157.922 24.28L155.049 33.9402H154.606L151.219 24.28H149.052L153.212 35.7129H154.521L154.241 36.6543C154.11 37.1365 153.931 37.5223 153.704 37.8162C153.477 38.1078 153.192 38.3168 152.85 38.4408C152.508 38.5648 152.087 38.6268 151.591 38.6268H149.883V40.5326H151.461C152.264 40.5326 152.971 40.4201 153.585 40.1928C154.198 39.9655 154.717 39.6095 155.139 39.1205C155.562 38.6314 155.89 37.9999 156.124 37.2261L160 24.28H157.92H157.922Z" fill="#1F4D56"/>
<path id="Vector_21" d="M0 0.461384V35.9654H13.6739V33.4098C13.6533 29.3317 10.3307 26.0205 6.24799 26.0205V22.7829C9.13433 22.7829 11.7497 23.9402 13.6716 25.807V9.54521C13.7451 6.01592 16.5442 3.13647 20.0804 3.13647C23.6166 3.13647 26.4891 6.01133 26.4891 9.54521C26.4891 13.0791 23.6143 15.9539 20.0804 15.9539C20.0689 15.9539 20.0574 15.9539 20.0482 15.9539V12.7163C20.0482 12.7163 20.0712 12.7163 20.0804 12.7163C21.8301 12.7163 23.2537 11.2926 23.2537 9.54291C23.2537 7.79319 21.8301 6.36954 20.0804 6.36954C19.217 6.36954 18.434 6.71626 17.8622 7.27884H17.8645C17.2721 7.86667 16.9667 8.65427 16.9208 9.67608V9.70135C16.9208 9.70135 16.9208 9.72201 16.9208 9.73349C16.9208 9.74038 16.9208 9.74726 16.9208 9.75415L16.9162 15.1112C16.9162 15.1112 16.9139 15.1112 16.9116 15.1089V22.7645C19.7658 19.0538 24.2457 16.6566 29.2767 16.6566V19.8942C22.4616 19.8942 16.9162 25.4396 16.9162 32.2547V35.9034H16.9139V35.9608H35.5063V0.456787H0.00229846L0 0.461384ZM8.52354 16.6084C7.25603 16.6084 6.22733 15.5797 6.22733 14.3121C6.22733 13.0446 7.25603 12.0159 8.52354 12.0159C9.79105 12.0159 10.8198 13.0446 10.8198 14.3121C10.8198 15.5797 9.79105 16.6084 8.52354 16.6084Z" fill="#00BF7D"/>
</g>
</svg>
